<svg width="33" height="33" viewBox="0 0 33 33" fill="none" xmlns="http://www.w3.org/2000/svg">
<g id="Frame" clip-path="url(#clip0_1068_3911)">
<path id="Vector" d="M20.6833 2.06697L6 20.2143H14.5714L12.4614 31.8145C12.4574 31.8373 12.4584 31.8606 12.4644 31.883C12.4704 31.9053 12.4812 31.926 12.4961 31.9437C12.511 31.9614 12.5295 31.9756 12.5505 31.9853C12.5715 31.995 12.5943 32.0001 12.6174 32C12.642 32 12.6662 31.9942 12.6882 31.9832C12.7102 31.9721 12.7293 31.9561 12.744 31.9364L27.4286 13.7857H18.8571L20.9772 2.18415C20.9801 2.16104 20.978 2.13758 20.9711 2.11535C20.9642 2.09311 20.9526 2.0726 20.9371 2.05518C20.9217 2.03776 20.9027 2.02383 20.8814 2.01431C20.8602 2.0048 20.8371 1.99992 20.8138 2C20.7883 2.0001 20.7632 2.00622 20.7405 2.01786C20.7178 2.02949 20.6982 2.04632 20.6833 2.06697Z" stroke="#1ACFAA" stroke-width="2" stroke-linecap="round" stroke-linejoin="round"/>
</g>
<defs>
<clipPath id="clip0_1068_3911">
<rect width="32" height="32" fill="white" transform="translate(0.33252 0.986229)"/>
</clipPath>
</defs>
</svg>
