<svg width="33" height="33" viewBox="0 0 33 33" fill="none" xmlns="http://www.w3.org/2000/svg">
<g id="Frame">
<g id="Group 1">
<path id="Vector" d="M15.9231 6.76923V10.5385M15.9231 6.76923C15.9231 6.02375 16.1441 5.29501 16.5583 4.67516C16.9725 4.05531 17.5611 3.5722 18.2499 3.28692C18.9386 3.00163 19.6965 2.92699 20.4276 3.07243C21.1588 3.21786 21.8304 3.57685 22.3576 4.10398C22.8847 4.63112 23.2437 5.30273 23.3891 6.03389C23.5345 6.76505 23.4599 7.52292 23.1746 8.21165C22.8893 8.90039 22.4062 9.48906 21.7864 9.90323C21.1665 10.3174 20.4378 10.5385 19.6923 10.5385H15.9231M15.9231 6.76923C15.9231 6.02375 15.702 5.29501 15.2878 4.67516C14.8737 4.05531 14.285 3.5722 13.5963 3.28692C12.9075 3.00163 12.1497 2.92699 11.4185 3.07243C10.6873 3.21786 10.0157 3.57685 9.4886 4.10398C8.96146 4.63112 8.60248 5.30273 8.45704 6.03389C8.3116 6.76505 8.38625 7.52292 8.67153 8.21165C8.95681 8.90039 9.43993 9.48906 10.0598 9.90323C10.6796 10.3174 11.4084 10.5385 12.1538 10.5385H15.9231" stroke="#F5C861" stroke-width="2" stroke-miterlimit="10" stroke-linecap="round"/>
<path id="Vector_2" d="M26.6923 10.5385H5.15385C3.96431 10.5385 3 11.5028 3 12.6923V15.9231C3 17.1126 3.96431 18.0769 5.15385 18.0769H26.6923C27.8818 18.0769 28.8462 17.1126 28.8462 15.9231V12.6923C28.8462 11.5028 27.8818 10.5385 26.6923 10.5385Z" stroke="#F5C861" stroke-width="2" stroke-linecap="round" stroke-linejoin="round"/>
<path id="Vector_3" d="M26.6923 18.0769V27.7692C26.6923 28.6261 26.3519 29.4478 25.746 30.0537C25.1401 30.6596 24.3184 31 23.4615 31H8.38461C7.52775 31 6.706 30.6596 6.10011 30.0537C5.49422 29.4478 5.15384 28.6261 5.15384 27.7692V18.0769M15.9231 10.5385V31" stroke="#F5C861" stroke-width="2" stroke-linecap="round" stroke-linejoin="round"/>
</g>
</g>
</svg>
